<svg width="494" height="737" viewBox="0 0 494 737" fill="none" xmlns="http://www.w3.org/2000/svg">
<g filter="url(#filter0_d_107_54)">
<rect x="55" y="54" width="358" height="601" rx="50" fill="white"/>
</g>
<circle cx="234.5" cy="325.5" r="63.5" fill="#90CAF9" fill-opacity="0.56"/>
<circle cx="234.5" cy="325.5" r="45.5" fill="#90CAF9"/>
<circle cx="234" cy="326" r="75" fill="#90CAF9" fill-opacity="0.56"/>
<path d="M173.12 488.12C172.773 488.12 172.48 488 172.24 487.76C172 487.52 171.88 487.227 171.88 486.88C171.88 486.533 172 486.24 172.24 486C172.48 485.76 172.773 485.64 173.12 485.64C173.453 485.64 173.733 485.76 173.96 486C174.2 486.24 174.32 486.533 174.32 486.88C174.32 487.227 174.2 487.52 173.96 487.76C173.733 488 173.453 488.12 173.12 488.12ZM182.651 488.12C182.305 488.12 182.011 488 181.771 487.76C181.531 487.52 181.411 487.227 181.411 486.88C181.411 486.533 181.531 486.24 181.771 486C182.011 485.76 182.305 485.64 182.651 485.64C182.985 485.64 183.265 485.76 183.491 486C183.731 486.24 183.851 486.533 183.851 486.88C183.851 487.227 183.731 487.52 183.491 487.76C183.265 488 182.985 488.12 182.651 488.12ZM193.423 473.2V488H191.603V473.2H193.423ZM197.464 475.26C197.118 475.26 196.824 475.14 196.584 474.9C196.344 474.66 196.224 474.367 196.224 474.02C196.224 473.673 196.344 473.38 196.584 473.14C196.824 472.9 197.118 472.78 197.464 472.78C197.798 472.78 198.078 472.9 198.304 473.14C198.544 473.38 198.664 473.673 198.664 474.02C198.664 474.367 198.544 474.66 198.304 474.9C198.078 475.14 197.798 475.26 197.464 475.26ZM198.344 477.04V488H196.524V477.04H198.344ZM205.326 488.18C204.486 488.18 203.733 488.04 203.066 487.76C202.4 487.467 201.873 487.067 201.486 486.56C201.1 486.04 200.886 485.447 200.846 484.78H202.726C202.78 485.327 203.033 485.773 203.486 486.12C203.953 486.467 204.56 486.64 205.306 486.64C206 486.64 206.546 486.487 206.946 486.18C207.346 485.873 207.546 485.487 207.546 485.02C207.546 484.54 207.333 484.187 206.906 483.96C206.48 483.72 205.82 483.487 204.926 483.26C204.113 483.047 203.446 482.833 202.926 482.62C202.42 482.393 201.98 482.067 201.606 481.64C201.246 481.2 201.066 480.627 201.066 479.92C201.066 479.36 201.233 478.847 201.566 478.38C201.9 477.913 202.373 477.547 202.986 477.28C203.6 477 204.3 476.86 205.086 476.86C206.3 476.86 207.28 477.167 208.026 477.78C208.773 478.393 209.173 479.233 209.226 480.3H207.406C207.366 479.727 207.133 479.267 206.706 478.92C206.293 478.573 205.733 478.4 205.026 478.4C204.373 478.4 203.853 478.54 203.466 478.82C203.08 479.1 202.886 479.467 202.886 479.92C202.886 480.28 203 480.58 203.226 480.82C203.466 481.047 203.76 481.233 204.106 481.38C204.466 481.513 204.96 481.667 205.586 481.84C206.373 482.053 207.013 482.267 207.506 482.48C208 482.68 208.42 482.987 208.766 483.4C209.126 483.813 209.313 484.353 209.326 485.02C209.326 485.62 209.16 486.16 208.826 486.64C208.493 487.12 208.02 487.5 207.406 487.78C206.806 488.047 206.113 488.18 205.326 488.18ZM214.115 478.54V485C214.115 485.533 214.229 485.913 214.455 486.14C214.682 486.353 215.075 486.46 215.635 486.46H216.975V488H215.335C214.322 488 213.562 487.767 213.055 487.3C212.549 486.833 212.295 486.067 212.295 485V478.54H210.875V477.04H212.295V474.28H214.115V477.04H216.975V478.54H214.115ZM229.181 482.1C229.181 482.447 229.161 482.813 229.121 483.2H220.361C220.427 484.28 220.794 485.127 221.461 485.74C222.141 486.34 222.961 486.64 223.921 486.64C224.707 486.64 225.361 486.46 225.881 486.1C226.414 485.727 226.787 485.233 227.001 484.62H228.961C228.667 485.673 228.081 486.533 227.201 487.2C226.321 487.853 225.227 488.18 223.921 488.18C222.881 488.18 221.947 487.947 221.121 487.48C220.307 487.013 219.667 486.353 219.201 485.5C218.734 484.633 218.501 483.633 218.501 482.5C218.501 481.367 218.727 480.373 219.181 479.52C219.634 478.667 220.267 478.013 221.081 477.56C221.907 477.093 222.854 476.86 223.921 476.86C224.961 476.86 225.881 477.087 226.681 477.54C227.481 477.993 228.094 478.62 228.521 479.42C228.961 480.207 229.181 481.1 229.181 482.1ZM227.301 481.72C227.301 481.027 227.147 480.433 226.841 479.94C226.534 479.433 226.114 479.053 225.581 478.8C225.061 478.533 224.481 478.4 223.841 478.4C222.921 478.4 222.134 478.693 221.481 479.28C220.841 479.867 220.474 480.68 220.381 481.72H227.301ZM236.923 476.84C238.256 476.84 239.336 477.247 240.163 478.06C240.99 478.86 241.403 480.02 241.403 481.54V488H239.603V481.8C239.603 480.707 239.33 479.873 238.783 479.3C238.236 478.713 237.49 478.42 236.543 478.42C235.583 478.42 234.816 478.72 234.243 479.32C233.683 479.92 233.403 480.793 233.403 481.94V488H231.583V477.04H233.403V478.6C233.763 478.04 234.25 477.607 234.863 477.3C235.49 476.993 236.176 476.84 236.923 476.84ZM245.316 475.26C244.969 475.26 244.676 475.14 244.436 474.9C244.196 474.66 244.076 474.367 244.076 474.02C244.076 473.673 244.196 473.38 244.436 473.14C244.676 472.9 244.969 472.78 245.316 472.78C245.649 472.78 245.929 472.9 246.156 473.14C246.396 473.38 246.516 473.673 246.516 474.02C246.516 474.367 246.396 474.66 246.156 474.9C245.929 475.14 245.649 475.26 245.316 475.26ZM246.196 477.04V488H244.376V477.04H246.196ZM254.638 476.84C255.971 476.84 257.051 477.247 257.878 478.06C258.704 478.86 259.118 480.02 259.118 481.54V488H257.318V481.8C257.318 480.707 257.044 479.873 256.498 479.3C255.951 478.713 255.204 478.42 254.258 478.42C253.298 478.42 252.531 478.72 251.958 479.32C251.398 479.92 251.118 480.793 251.118 481.94V488H249.298V477.04H251.118V478.6C251.478 478.04 251.964 477.607 252.578 477.3C253.204 476.993 253.891 476.84 254.638 476.84ZM266.611 476.86C267.557 476.86 268.384 477.067 269.091 477.48C269.811 477.893 270.344 478.413 270.691 479.04V477.04H272.531V488.24C272.531 489.24 272.317 490.127 271.891 490.9C271.464 491.687 270.851 492.3 270.051 492.74C269.264 493.18 268.344 493.4 267.291 493.4C265.851 493.4 264.651 493.06 263.691 492.38C262.731 491.7 262.164 490.773 261.991 489.6H263.791C263.991 490.267 264.404 490.8 265.031 491.2C265.657 491.613 266.411 491.82 267.291 491.82C268.291 491.82 269.104 491.507 269.731 490.88C270.371 490.253 270.691 489.373 270.691 488.24V485.94C270.331 486.58 269.797 487.113 269.091 487.54C268.384 487.967 267.557 488.18 266.611 488.18C265.637 488.18 264.751 487.94 263.951 487.46C263.164 486.98 262.544 486.307 262.091 485.44C261.637 484.573 261.411 483.587 261.411 482.48C261.411 481.36 261.637 480.38 262.091 479.54C262.544 478.687 263.164 478.027 263.951 477.56C264.751 477.093 265.637 476.86 266.611 476.86ZM270.691 482.5C270.691 481.673 270.524 480.953 270.191 480.34C269.857 479.727 269.404 479.26 268.831 478.94C268.271 478.607 267.651 478.44 266.971 478.44C266.291 478.44 265.671 478.6 265.111 478.92C264.551 479.24 264.104 479.707 263.771 480.32C263.437 480.933 263.271 481.653 263.271 482.48C263.271 483.32 263.437 484.053 263.771 484.68C264.104 485.293 264.551 485.767 265.111 486.1C265.671 486.42 266.291 486.58 266.971 486.58C267.651 486.58 268.271 486.42 268.831 486.1C269.404 485.767 269.857 485.293 270.191 484.68C270.524 484.053 270.691 483.327 270.691 482.5ZM281.518 488.12C281.172 488.12 280.878 488 280.638 487.76C280.398 487.52 280.278 487.227 280.278 486.88C280.278 486.533 280.398 486.24 280.638 486C280.878 485.76 281.172 485.64 281.518 485.64C281.852 485.64 282.132 485.76 282.358 486C282.598 486.24 282.718 486.533 282.718 486.88C282.718 487.227 282.598 487.52 282.358 487.76C282.132 488 281.852 488.12 281.518 488.12ZM291.05 488.12C290.703 488.12 290.41 488 290.17 487.76C289.93 487.52 289.81 487.227 289.81 486.88C289.81 486.533 289.93 486.24 290.17 486C290.41 485.76 290.703 485.64 291.05 485.64C291.383 485.64 291.663 485.76 291.89 486C292.13 486.24 292.25 486.533 292.25 486.88C292.25 487.227 292.13 487.52 291.89 487.76C291.663 488 291.383 488.12 291.05 488.12Z" fill="#1A234A"/>
<defs>
<filter id="filter0_d_107_54" x="0" y="0" width="494" height="737" filterUnits="userSpaceOnUse" color-interpolation-filters="sRGB">
<feFlood flood-opacity="0" result="BackgroundImageFix"/>
<feColorMatrix in="SourceAlpha" type="matrix" values="0 0 0 0 0 0 0 0 0 0 0 0 0 0 0 0 0 0 127 0" result="hardAlpha"/>
<feMorphology radius="6" operator="dilate" in="SourceAlpha" result="effect1_dropShadow_107_54"/>
<feOffset dx="13" dy="14"/>
<feGaussianBlur stdDeviation="31"/>
<feComposite in2="hardAlpha" operator="out"/>
<feColorMatrix type="matrix" values="0 0 0 0 0.602062 0 0 0 0 0.670872 0 0 0 0 0.720701 0 0 0 1 0"/>
<feBlend mode="normal" in2="BackgroundImageFix" result="effect1_dropShadow_107_54"/>
<feBlend mode="normal" in="SourceGraphic" in2="effect1_dropShadow_107_54" result="shape"/>
</filter>
</defs>
</svg>
