<svg width="358" height="86" viewBox="0 0 358 86" fill="none" xmlns="http://www.w3.org/2000/svg">
<rect x="0.065918" width="357" height="86" rx="10" fill="white"/>
<rect x="25.0659" y="15" width="148" height="56" rx="10" fill="#FF5A05"/>
<path d="M60.8326 35.4545V50H63.361V39.9858H63.496L67.5158 49.9574H69.4051L73.4249 40.0071H73.5599V50H76.0883V35.4545H72.8639L68.5457 45.9943H68.3752L64.057 35.4545H60.8326ZM83.6025 50.2131C86.7985 50.2131 88.8298 47.9616 88.8298 44.5881C88.8298 41.2074 86.7985 38.9489 83.6025 38.9489C80.4065 38.9489 78.3752 41.2074 78.3752 44.5881C78.3752 47.9616 80.4065 50.2131 83.6025 50.2131ZM83.6167 48.1534C81.8482 48.1534 80.9818 46.5767 80.9818 44.581C80.9818 42.5852 81.8482 40.9872 83.6167 40.9872C85.3568 40.9872 86.2232 42.5852 86.2232 44.581C86.2232 46.5767 85.3568 48.1534 83.6167 48.1534ZM93.583 43.608C93.583 42.0312 94.5347 41.1222 95.8912 41.1222C97.2193 41.1222 98.0148 41.9957 98.0148 43.4517V50H100.586V43.054C100.593 40.4403 99.1014 38.9489 96.85 38.9489C95.2165 38.9489 94.0943 39.7301 93.5972 40.9446H93.4693V39.0909H91.0119V50H93.583V43.608ZM108.647 39.0909H106.495V36.4773H103.924V39.0909H102.376V41.0795H103.924V47.1449C103.91 49.1974 105.401 50.206 107.333 50.1491C108.064 50.1278 108.569 49.9858 108.846 49.8935L108.413 47.8835C108.27 47.919 107.979 47.983 107.66 47.983C107.013 47.983 106.495 47.7557 106.495 46.7188V41.0795H108.647V39.0909ZM113.602 43.608C113.602 42.0312 114.583 41.1222 115.96 41.1222C117.31 41.1222 118.105 41.9815 118.105 43.4517V50H120.676V43.054C120.676 40.419 119.185 38.9489 116.919 38.9489C115.243 38.9489 114.178 39.7088 113.674 40.9446H113.546V35.4545H111.031V50H113.602V43.608ZM125.868 35.4545H123.297V50H125.868V35.4545ZM130.11 54.0909C132.113 54.0909 133.27 53.0611 133.888 51.321L138.27 39.1051L135.522 39.0909L133.001 47.3295H132.887L130.373 39.0909H127.645L131.601 50.2273L131.381 50.8168C130.905 52.0597 130.153 52.1449 129.03 51.8182L128.434 53.821C128.782 53.9631 129.407 54.0909 130.11 54.0909Z" fill="white"/>
<rect x="201.066" y="15" width="129" height="56" rx="10" fill="#FF5A05" fill-opacity="0.1"/>
<path d="M235.967 35.4545L241.258 44.5739V50H243.886V44.5739L249.177 35.4545H246.202L242.643 41.8892H242.501L238.943 35.4545H235.967ZM253.728 50.2131C256.271 50.2131 258.018 48.9702 258.473 47.0739L256.072 46.804C255.724 47.7273 254.872 48.2102 253.764 48.2102C252.102 48.2102 251.001 47.1165 250.98 45.2486H258.579V44.4602C258.579 40.6321 256.278 38.9489 253.593 38.9489C250.468 38.9489 248.43 41.2429 248.43 44.6094C248.43 48.0327 250.44 50.2131 253.728 50.2131ZM250.987 43.5156C251.065 42.1236 252.095 40.9517 253.629 40.9517C255.106 40.9517 256.1 42.0312 256.115 43.5156H250.987ZM263.893 50.2202C265.605 50.2202 266.628 49.4176 267.096 48.5014H267.182V50H269.653V42.6989C269.653 39.8153 267.302 38.9489 265.221 38.9489C262.927 38.9489 261.166 39.9716 260.598 41.9602L262.998 42.3011C263.254 41.5554 263.979 40.9162 265.236 40.9162C266.429 40.9162 267.082 41.527 267.082 42.5994V42.642C267.082 43.3807 266.308 43.4162 264.383 43.6222C262.267 43.8494 260.243 44.4815 260.243 46.9389C260.243 49.0838 261.812 50.2202 263.893 50.2202ZM264.561 48.331C263.489 48.331 262.721 47.8409 262.721 46.8963C262.721 45.9091 263.581 45.4972 264.731 45.3338C265.406 45.2415 266.756 45.071 267.089 44.8011V46.0866C267.089 47.3011 266.109 48.331 264.561 48.331ZM272.239 50H274.81V43.5866C274.81 42.2017 275.854 41.2216 277.267 41.2216C277.7 41.2216 278.24 41.2997 278.46 41.3707V39.0057C278.226 38.9631 277.821 38.9347 277.537 38.9347C276.287 38.9347 275.243 39.6449 274.845 40.9091H274.731V39.0909H272.239V50ZM282.739 35.4545H280.168V50H282.739V35.4545ZM286.981 54.0909C288.984 54.0909 290.142 53.0611 290.759 51.321L295.142 39.1051L292.393 39.0909L289.872 47.3295H289.758L287.244 39.0909H284.517L288.473 50.2273L288.252 50.8168C287.777 52.0597 287.024 52.1449 285.902 51.8182L285.305 53.821C285.653 53.9631 286.278 54.0909 286.981 54.0909Z" fill="#FF5A05"/>
</svg>
