<svg width="173" height="63" viewBox="0 0 173 63" fill="none" xmlns="http://www.w3.org/2000/svg">
<rect x="0.065918" y="0.143555" width="172" height="62" rx="4" fill="#FF5A05"/>
<path d="M41.5077 28.1933H43.7591C43.269 25.3595 40.8472 23.3992 37.708 23.3992C33.9438 23.3992 31.1952 26.233 31.1952 30.8779C31.1952 35.4802 33.8656 38.3424 37.8074 38.3424C41.3372 38.3424 43.8585 36.0271 43.8585 32.3552V30.7004H38.1412V32.5115H41.735C41.6852 34.8552 40.1369 36.3396 37.8074 36.3396C35.2435 36.3396 33.3756 34.4007 33.3756 30.8637C33.3756 27.341 35.2577 25.4021 37.7222 25.4021C39.654 25.4021 40.9608 26.4674 41.5077 28.1933ZM51.1756 38.3637C53.5549 38.3637 55.2381 37.1919 55.7211 35.4163L53.7112 35.0541C53.3276 36.0839 52.4043 36.6095 51.197 36.6095C49.3788 36.6095 48.1572 35.4305 48.1004 33.3282H55.856V32.5754C55.856 28.6336 53.4981 27.0924 51.0265 27.0924C47.9867 27.0924 45.9839 29.4078 45.9839 32.76C45.9839 36.1478 47.9583 38.3637 51.1756 38.3637ZM48.1075 31.7373C48.1927 30.189 49.3149 28.8467 51.0407 28.8467C52.6884 28.8467 53.768 30.0683 53.7751 31.7373H48.1075ZM63.3046 27.2345H61.0673V24.6208H58.9438V27.2345H57.3457V28.939H58.9438V35.3808C58.9367 37.3623 60.4494 38.3211 62.1256 38.2856C62.8003 38.2785 63.2548 38.1507 63.5034 38.0583L63.1199 36.3041C62.9778 36.3325 62.7151 36.3964 62.3742 36.3964C61.6852 36.3964 61.0673 36.1691 61.0673 34.9404V28.939H63.3046V27.2345ZM79.0503 27.4191H81.1668C81.1029 25.0896 79.0432 23.3992 76.0886 23.3992C73.1696 23.3992 70.9324 25.0683 70.9324 27.5754C70.9324 29.5995 72.3813 30.7856 74.7179 31.4177L76.4367 31.8865C77.9921 32.2984 79.1923 32.8097 79.1923 34.1024C79.1923 35.5228 77.8358 36.4603 75.9679 36.4603C74.2776 36.4603 72.8713 35.7075 72.7435 34.1237H70.5418C70.6838 36.7586 72.7222 38.385 75.9821 38.385C79.3983 38.385 81.3656 36.5882 81.3656 34.1237C81.3656 31.5029 79.029 30.4873 77.1824 30.0328L75.7619 29.6634C74.6256 29.3722 73.1128 28.8396 73.1199 27.4475C73.1199 26.2117 74.2492 25.2955 76.0389 25.2955C77.708 25.2955 78.894 26.0768 79.0503 27.4191ZM88.91 27.2345H86.6728V24.6208H84.5492V27.2345H82.9512V28.939H84.5492V35.3808C84.5421 37.3623 86.0549 38.3211 87.731 38.2856C88.4058 38.2785 88.8603 38.1507 89.1089 38.0583L88.7254 36.3041C88.5833 36.3325 88.3205 36.3964 87.9796 36.3964C87.2907 36.3964 86.6728 36.1691 86.6728 34.9404V28.939H88.91V27.2345ZM94.4338 38.385C96.2378 38.385 97.2534 37.4688 97.6582 36.6521H97.7435V38.1436H99.8173V30.8992C99.8173 27.7245 97.3173 27.0924 95.5844 27.0924C93.61 27.0924 91.7918 27.8879 91.0815 29.8765L93.0773 30.3311C93.3898 29.5569 94.1852 28.8112 95.6128 28.8112C96.9835 28.8112 97.6867 29.5285 97.6867 30.7643V30.814C97.6867 31.5882 96.8912 31.574 94.931 31.8012C92.8642 32.0427 90.7477 32.5825 90.7477 35.0612C90.7477 37.2061 92.36 38.385 94.4338 38.385ZM94.8955 36.6805C93.6952 36.6805 92.8287 36.1407 92.8287 35.0896C92.8287 33.9532 93.8372 33.5484 95.0659 33.385C95.7548 33.2927 97.3884 33.108 97.6938 32.8026V34.2089C97.6938 35.5015 96.6639 36.6805 94.8955 36.6805ZM102.646 38.1436H104.769V31.4816C104.769 30.0541 105.87 29.0242 107.376 29.0242C107.816 29.0242 108.313 29.1024 108.484 29.1521V27.1208C108.271 27.0924 107.852 27.0711 107.582 27.0711C106.303 27.0711 105.21 27.7955 104.812 28.9674H104.698V27.2345H102.646V38.1436ZM116.058 27.2345H113.821V24.6208H111.698V27.2345H110.1V28.939H111.698V35.3808C111.691 37.3623 113.203 38.3211 114.879 38.2856C115.554 38.2785 116.009 38.1507 116.257 38.0583L115.874 36.3041C115.732 36.3325 115.469 36.3964 115.128 36.3964C114.439 36.3964 113.821 36.1691 113.821 34.9404V28.939H116.058V27.2345ZM122.992 38.3637C125.371 38.3637 127.055 37.1919 127.538 35.4163L125.528 35.0541C125.144 36.0839 124.221 36.6095 123.013 36.6095C121.195 36.6095 119.974 35.4305 119.917 33.3282H127.672V32.5754C127.672 28.6336 125.314 27.0924 122.843 27.0924C119.803 27.0924 117.8 29.4078 117.8 32.76C117.8 36.1478 119.775 38.3637 122.992 38.3637ZM119.924 31.7373C120.009 30.189 121.131 28.8467 122.857 28.8467C124.505 28.8467 125.584 30.0683 125.591 31.7373H119.924ZM134.112 38.3566C136.101 38.3566 136.882 37.1421 137.266 36.4461H137.443V38.1436H139.517V23.5981H137.394V29.0029H137.266C136.882 28.3282 136.158 27.0924 134.127 27.0924C131.492 27.0924 129.553 29.1734 129.553 32.7103C129.553 36.2401 131.463 38.3566 134.112 38.3566ZM134.581 36.5455C132.685 36.5455 131.698 34.8765 131.698 32.689C131.698 30.5228 132.664 28.8964 134.581 28.8964C136.435 28.8964 137.429 30.4092 137.429 32.689C137.429 34.983 136.414 36.5455 134.581 36.5455Z" fill="white"/>
</svg>
