<svg width="150" height="63" viewBox="0 0 150 63" fill="none" xmlns="http://www.w3.org/2000/svg">
<rect x="0.565918" y="0.643555" width="148" height="61" rx="3.5" stroke="white" stroke-opacity="0.3"/>
<path d="M31.6639 38.1436H33.8585V31.8012H40.0375V29.9191H33.8585V25.4873H40.6838V23.5981H31.6639V38.1436ZM43.0755 38.1436H45.1991V31.4816C45.1991 30.0541 46.2999 29.0242 47.8056 29.0242C48.246 29.0242 48.7431 29.1024 48.9136 29.1521V27.1208C48.7005 27.0924 48.2815 27.0711 48.0116 27.0711C46.7332 27.0711 45.6394 27.7955 45.2417 28.9674H45.1281V27.2345H43.0755V38.1436ZM55.0624 38.3637C57.4416 38.3637 59.1249 37.1919 59.6078 35.4163L57.5979 35.0541C57.2144 36.0839 56.2911 36.6095 55.0837 36.6095C53.2655 36.6095 52.0439 35.4305 51.9871 33.3282H59.7428V32.5754C59.7428 28.6336 57.3848 27.0924 54.9132 27.0924C51.8734 27.0924 49.8706 29.4078 49.8706 32.76C49.8706 36.1478 51.845 38.3637 55.0624 38.3637ZM51.9942 31.7373C52.0794 30.189 53.2016 28.8467 54.9274 28.8467C56.5752 28.8467 57.6547 30.0683 57.6618 31.7373H51.9942ZM66.8006 38.3637C69.1799 38.3637 70.8631 37.1919 71.3461 35.4163L69.3362 35.0541C68.9526 36.0839 68.0293 36.6095 66.822 36.6095C65.0038 36.6095 63.7822 35.4305 63.7254 33.3282H71.481V32.5754C71.481 28.6336 69.1231 27.0924 66.6515 27.0924C63.6117 27.0924 61.6089 29.4078 61.6089 32.76C61.6089 36.1478 63.5833 38.3637 66.8006 38.3637ZM63.7325 31.7373C63.8177 30.189 64.9399 28.8467 66.6657 28.8467C68.3134 28.8467 69.393 30.0683 69.4001 31.7373H63.7325ZM78.5833 25.4873H83.1146V38.1436H85.3021V25.4873H89.8404V23.5981H78.5833V25.4873ZM91.0247 38.1436H93.1483V31.4816C93.1483 30.0541 94.2492 29.0242 95.7548 29.0242C96.1952 29.0242 96.6923 29.1024 96.8628 29.1521V27.1208C96.6497 27.0924 96.2307 27.0711 95.9608 27.0711C94.6824 27.0711 93.5886 27.7955 93.1909 28.9674H93.0773V27.2345H91.0247V38.1436ZM101.778 38.385C103.582 38.385 104.597 37.4688 105.002 36.6521H105.087V38.1436H107.161V30.8992C107.161 27.7245 104.661 27.0924 102.928 27.0924C100.954 27.0924 99.1355 27.8879 98.4253 29.8765L100.421 30.3311C100.734 29.5569 101.529 28.8112 102.957 28.8112C104.327 28.8112 105.03 29.5285 105.03 30.7643V30.814C105.03 31.5882 104.235 31.574 102.275 31.8012C100.208 32.0427 98.0915 32.5825 98.0915 35.0612C98.0915 37.2061 99.7037 38.385 101.778 38.385ZM102.239 36.6805C101.039 36.6805 100.172 36.1407 100.172 35.0896C100.172 33.9532 101.181 33.5484 102.41 33.385C103.099 33.2927 104.732 33.108 105.038 32.8026V34.2089C105.038 35.5015 104.008 36.6805 102.239 36.6805ZM109.99 38.1436H112.113V27.2345H109.99V38.1436ZM111.062 25.5512C111.794 25.5512 112.404 24.983 112.404 24.287C112.404 23.591 111.794 23.0157 111.062 23.0157C110.323 23.0157 109.72 23.591 109.72 24.287C109.72 24.983 110.323 25.5512 111.062 25.5512ZM117.094 23.5981H114.97V38.1436H117.094V23.5981Z" fill="white"/>
</svg>
