<svg width="335" height="58" viewBox="0 0 335 58" fill="none" xmlns="http://www.w3.org/2000/svg">
<rect width="335" height="58" rx="10" fill="#FF5A05"/>
<path d="M121.088 22.4091H118.32V35.5H121.088V22.4091ZM126.037 29.8239C126.044 28.5582 126.798 27.8168 127.897 27.8168C128.99 27.8168 129.649 28.5327 129.642 29.7344V35.5H132.365V29.2486C132.365 26.9602 131.023 25.554 128.978 25.554C127.52 25.554 126.465 26.2699 126.024 27.4141H125.909V25.6818H123.314V35.5H126.037V29.8239ZM142.68 28.4815C142.438 26.6726 140.98 25.554 138.5 25.554C135.988 25.554 134.332 26.7173 134.339 28.6094C134.332 30.0795 135.259 31.032 137.177 31.4155L138.877 31.7543C139.734 31.9268 140.124 32.2401 140.136 32.7322C140.124 33.3139 139.491 33.7294 138.538 33.7294C137.567 33.7294 136.921 33.3139 136.755 32.5149L134.077 32.6555C134.332 34.5348 135.93 35.6918 138.532 35.6918C141.076 35.6918 142.898 34.3942 142.904 32.4574C142.898 31.0384 141.971 30.1882 140.066 29.7983L138.289 29.4403C137.375 29.2422 137.036 28.929 137.043 28.456C137.036 27.8679 137.701 27.4844 138.545 27.4844C139.491 27.4844 140.053 28.0021 140.188 28.6349L142.68 28.4815ZM149.841 25.6818H147.994V23.3295H145.271V25.6818H143.929V27.7273H145.271V32.8409C145.258 34.7649 146.568 35.7173 148.544 35.6342C149.247 35.6087 149.745 35.468 150.02 35.3786L149.592 33.3523C149.458 33.3778 149.17 33.4418 148.914 33.4418C148.371 33.4418 147.994 33.2372 147.994 32.483V27.7273H149.841V25.6818ZM154.415 35.6854C155.866 35.6854 156.805 35.0526 157.285 34.1385H157.361V35.5H159.944V28.8778C159.944 26.5384 157.962 25.554 155.776 25.554C153.424 25.554 151.877 26.679 151.5 28.4688L154.018 28.6733C154.204 28.0213 154.785 27.5419 155.763 27.5419C156.69 27.5419 157.221 28.0085 157.221 28.8139V28.8523C157.221 29.4851 156.55 29.5682 154.843 29.7344C152.9 29.9134 151.155 30.5653 151.155 32.7578C151.155 34.701 152.542 35.6854 154.415 35.6854ZM155.195 33.8061C154.357 33.8061 153.756 33.4162 153.756 32.6683C153.756 31.9013 154.389 31.5241 155.348 31.3899C155.942 31.3068 156.914 31.1662 157.24 30.9489V31.9908C157.24 33.0199 156.39 33.8061 155.195 33.8061ZM164.779 22.4091H162.056V35.5H164.779V22.4091ZM169.684 22.4091H166.961V35.5H169.684V22.4091ZM176.082 35.5H178.85V31.2557H181.177C184.187 31.2557 185.939 29.4595 185.939 26.8452C185.939 24.2436 184.219 22.4091 181.247 22.4091H176.082V35.5ZM178.85 29.0376V24.6719H180.716C182.314 24.6719 183.088 25.5412 183.088 26.8452C183.088 28.1428 182.314 29.0376 180.729 29.0376H178.85ZM190.221 35.6854C191.672 35.6854 192.612 35.0526 193.091 34.1385H193.168V35.5H195.75V28.8778C195.75 26.5384 193.769 25.554 191.583 25.554C189.231 25.554 187.684 26.679 187.307 28.4688L189.825 28.6733C190.01 28.0213 190.592 27.5419 191.57 27.5419C192.497 27.5419 193.027 28.0085 193.027 28.8139V28.8523C193.027 29.4851 192.356 29.5682 190.65 29.7344C188.706 29.9134 186.961 30.5653 186.961 32.7578C186.961 34.701 188.348 35.6854 190.221 35.6854ZM191.001 33.8061C190.164 33.8061 189.563 33.4162 189.563 32.6683C189.563 31.9013 190.196 31.5241 191.155 31.3899C191.749 31.3068 192.721 31.1662 193.047 30.9489V31.9908C193.047 33.0199 192.196 33.8061 191.001 33.8061ZM202.299 35.6918C204.913 35.6918 206.556 34.1577 206.684 31.9013H204.114C203.955 32.9496 203.264 33.5376 202.331 33.5376C201.059 33.5376 200.234 32.4702 200.234 30.5909C200.234 28.7372 201.065 27.6761 202.331 27.6761C203.328 27.6761 203.967 28.3345 204.114 29.3125H206.684C206.569 27.0433 204.85 25.554 202.286 25.554C199.308 25.554 197.467 27.6186 197.467 30.6293C197.467 33.6143 199.276 35.6918 202.299 35.6918ZM208.427 35.5H211.15V32.3807L211.886 31.5433L214.564 35.5H217.753L213.925 29.9325L217.568 25.6818H214.442L211.297 29.4084H211.15V22.4091H208.427V35.5Z" fill="white"/>
</svg>
