<svg width="173" height="62" viewBox="0 0 173 62" fill="none" xmlns="http://www.w3.org/2000/svg">
<rect x="0.065918" width="172" height="62" rx="4" fill="#FF5A05"/>
<path d="M41.5077 28.0497H43.7591C43.269 25.2159 40.8472 23.2557 37.708 23.2557C33.9438 23.2557 31.1952 26.0895 31.1952 30.7344C31.1952 35.3366 33.8656 38.1989 37.8074 38.1989C41.3372 38.1989 43.8585 35.8835 43.8585 32.2116V30.5568H38.1412V32.3679H41.735C41.6852 34.7116 40.1369 36.196 37.8074 36.196C35.2435 36.196 33.3756 34.2571 33.3756 30.7202C33.3756 27.1974 35.2577 25.2585 37.7222 25.2585C39.654 25.2585 40.9608 26.3239 41.5077 28.0497ZM51.1756 38.2202C53.5549 38.2202 55.2381 37.0483 55.7211 35.2727L53.7112 34.9105C53.3276 35.9403 52.4043 36.4659 51.197 36.4659C49.3788 36.4659 48.1572 35.2869 48.1004 33.1847H55.856V32.4318C55.856 28.4901 53.4981 26.9489 51.0265 26.9489C47.9867 26.9489 45.9839 29.2642 45.9839 32.6165C45.9839 36.0043 47.9583 38.2202 51.1756 38.2202ZM48.1075 31.5938C48.1927 30.0455 49.3149 28.7031 51.0407 28.7031C52.6884 28.7031 53.768 29.9247 53.7751 31.5938H48.1075ZM63.3046 27.0909H61.0673V24.4773H58.9438V27.0909H57.3457V28.7955H58.9438V35.2372C58.9367 37.2188 60.4494 38.1776 62.1256 38.142C62.8003 38.1349 63.2548 38.0071 63.5034 37.9148L63.1199 36.1605C62.9778 36.1889 62.7151 36.2528 62.3742 36.2528C61.6852 36.2528 61.0673 36.0256 61.0673 34.7969V28.7955H63.3046V27.0909ZM79.0503 27.2756H81.1668C81.1029 24.946 79.0432 23.2557 76.0886 23.2557C73.1696 23.2557 70.9324 24.9247 70.9324 27.4318C70.9324 29.456 72.3813 30.642 74.7179 31.2741L76.4367 31.7429C77.9921 32.1548 79.1923 32.6662 79.1923 33.9588C79.1923 35.3793 77.8358 36.3168 75.9679 36.3168C74.2776 36.3168 72.8713 35.5639 72.7435 33.9801H70.5418C70.6838 36.6151 72.7222 38.2415 75.9821 38.2415C79.3983 38.2415 81.3656 36.4446 81.3656 33.9801C81.3656 31.3594 79.029 30.3438 77.1824 29.8892L75.7619 29.5199C74.6256 29.2287 73.1128 28.696 73.1199 27.304C73.1199 26.0682 74.2492 25.152 76.0389 25.152C77.708 25.152 78.894 25.9332 79.0503 27.2756ZM88.91 27.0909H86.6728V24.4773H84.5492V27.0909H82.9512V28.7955H84.5492V35.2372C84.5421 37.2188 86.0549 38.1776 87.731 38.142C88.4058 38.1349 88.8603 38.0071 89.1089 37.9148L88.7254 36.1605C88.5833 36.1889 88.3205 36.2528 87.9796 36.2528C87.2907 36.2528 86.6728 36.0256 86.6728 34.7969V28.7955H88.91V27.0909ZM94.4338 38.2415C96.2378 38.2415 97.2534 37.3253 97.6582 36.5085H97.7435V38H99.8173V30.7557C99.8173 27.581 97.3173 26.9489 95.5844 26.9489C93.61 26.9489 91.7918 27.7443 91.0815 29.733L93.0773 30.1875C93.3898 29.4134 94.1852 28.6676 95.6128 28.6676C96.9835 28.6676 97.6867 29.3849 97.6867 30.6207V30.6705C97.6867 31.4446 96.8912 31.4304 94.931 31.6577C92.8642 31.8991 90.7477 32.4389 90.7477 34.9176C90.7477 37.0625 92.36 38.2415 94.4338 38.2415ZM94.8955 36.5369C93.6952 36.5369 92.8287 35.9972 92.8287 34.946C92.8287 33.8097 93.8372 33.4048 95.0659 33.2415C95.7548 33.1491 97.3884 32.9645 97.6938 32.6591V34.0653C97.6938 35.358 96.6639 36.5369 94.8955 36.5369ZM102.646 38H104.769V31.3381C104.769 29.9105 105.87 28.8807 107.376 28.8807C107.816 28.8807 108.313 28.9588 108.484 29.0085V26.9773C108.271 26.9489 107.852 26.9276 107.582 26.9276C106.303 26.9276 105.21 27.652 104.812 28.8239H104.698V27.0909H102.646V38ZM116.058 27.0909H113.821V24.4773H111.698V27.0909H110.1V28.7955H111.698V35.2372C111.691 37.2188 113.203 38.1776 114.879 38.142C115.554 38.1349 116.009 38.0071 116.257 37.9148L115.874 36.1605C115.732 36.1889 115.469 36.2528 115.128 36.2528C114.439 36.2528 113.821 36.0256 113.821 34.7969V28.7955H116.058V27.0909ZM122.992 38.2202C125.371 38.2202 127.055 37.0483 127.538 35.2727L125.528 34.9105C125.144 35.9403 124.221 36.4659 123.013 36.4659C121.195 36.4659 119.974 35.2869 119.917 33.1847H127.672V32.4318C127.672 28.4901 125.314 26.9489 122.843 26.9489C119.803 26.9489 117.8 29.2642 117.8 32.6165C117.8 36.0043 119.775 38.2202 122.992 38.2202ZM119.924 31.5938C120.009 30.0455 121.131 28.7031 122.857 28.7031C124.505 28.7031 125.584 29.9247 125.591 31.5938H119.924ZM134.112 38.2131C136.101 38.2131 136.882 36.9986 137.266 36.3026H137.443V38H139.517V23.4545H137.394V28.8594H137.266C136.882 28.1847 136.158 26.9489 134.127 26.9489C131.492 26.9489 129.553 29.0298 129.553 32.5668C129.553 36.0966 131.463 38.2131 134.112 38.2131ZM134.581 36.402C132.685 36.402 131.698 34.733 131.698 32.5455C131.698 30.3793 132.664 28.7528 134.581 28.7528C136.435 28.7528 137.429 30.2656 137.429 32.5455C137.429 34.8395 136.414 36.402 134.581 36.402Z" fill="white"/>
</svg>
