<svg width="311" height="421" viewBox="0 0 311 421" fill="none" xmlns="http://www.w3.org/2000/svg">
<g filter="url(#filter0_d_102_35)">
<path d="M15 10H276V271L145.5 381L15 271V10Z" fill="white"/>
</g>
<path opacity="0.7" d="M89.3026 213L90.5028 209.413H95.9716L97.179 213H99.9915L94.8636 198.455H91.6108L86.4901 213H89.3026ZM91.2131 207.297L93.1804 201.438H93.294L95.2614 207.297H91.2131ZM102.678 213H105.363L107.408 205.628H107.557L109.603 213H112.28L115.37 202.091H112.742L110.853 209.719H110.746L108.786 202.091H106.194L104.233 209.761H104.134L102.216 202.091H99.5955L102.678 213ZM120.304 213.22C122.016 213.22 123.038 212.418 123.507 211.501H123.592V213H126.064V205.699C126.064 202.815 123.713 201.949 121.632 201.949C119.338 201.949 117.577 202.972 117.009 204.96L119.409 205.301C119.665 204.555 120.389 203.916 121.646 203.916C122.839 203.916 123.493 204.527 123.493 205.599V205.642C123.493 206.381 122.719 206.416 120.794 206.622C118.678 206.849 116.653 207.482 116.653 209.939C116.653 212.084 118.223 213.22 120.304 213.22ZM120.972 211.331C119.899 211.331 119.132 210.841 119.132 209.896C119.132 208.909 119.991 208.497 121.142 208.334C121.817 208.241 123.166 208.071 123.5 207.801V209.087C123.5 210.301 122.52 211.331 120.972 211.331ZM128.649 213H131.22V206.587C131.22 205.202 132.264 204.222 133.678 204.222C134.111 204.222 134.651 204.3 134.871 204.371V202.006C134.636 201.963 134.232 201.935 133.947 201.935C132.697 201.935 131.653 202.645 131.256 203.909H131.142V202.091H128.649V213ZM140.178 213.192C142.053 213.192 142.898 212.077 143.303 211.281H143.459V213H145.988V198.455H143.409V203.895H143.303C142.912 203.107 142.11 201.949 140.185 201.949C137.664 201.949 135.682 203.923 135.682 207.56C135.682 211.153 137.607 213.192 140.178 213.192ZM140.895 211.082C139.198 211.082 138.303 209.591 138.303 207.545C138.303 205.514 139.184 204.058 140.895 204.058C142.55 204.058 143.459 205.429 143.459 207.545C143.459 209.662 142.536 211.082 140.895 211.082ZM157.349 204.974C156.994 203.128 155.517 201.949 152.96 201.949C150.332 201.949 148.543 203.241 148.55 205.259C148.543 206.849 149.523 207.901 151.618 208.334L153.479 208.724C154.48 208.945 154.949 209.349 154.949 209.967C154.949 210.713 154.139 211.274 152.918 211.274C151.739 211.274 150.972 210.763 150.751 209.783L148.244 210.024C148.564 212.027 150.247 213.213 152.925 213.213C155.652 213.213 157.577 211.8 157.584 209.733C157.577 208.178 156.575 207.226 154.516 206.778L152.655 206.381C151.547 206.132 151.107 205.749 151.114 205.116C151.107 204.378 151.923 203.866 152.996 203.866C154.182 203.866 154.807 204.513 155.006 205.23L157.349 204.974ZM167.839 213H170.439L173.358 202.794H173.472L176.384 213H178.983L183.088 198.455H180.254L177.634 209.151H177.506L174.7 198.455H172.122L169.324 209.143H169.189L166.568 198.455H163.734L167.839 213ZM188.447 213.213C191.643 213.213 193.674 210.962 193.674 207.588C193.674 204.207 191.643 201.949 188.447 201.949C185.251 201.949 183.219 204.207 183.219 207.588C183.219 210.962 185.251 213.213 188.447 213.213ZM188.461 211.153C186.692 211.153 185.826 209.577 185.826 207.581C185.826 205.585 186.692 203.987 188.461 203.987C190.201 203.987 191.067 205.585 191.067 207.581C191.067 209.577 190.201 211.153 188.461 211.153ZM198.427 206.608C198.427 205.031 199.379 204.122 200.735 204.122C202.064 204.122 202.859 204.996 202.859 206.452V213H205.43V206.054C205.437 203.44 203.946 201.949 201.694 201.949C200.061 201.949 198.939 202.73 198.441 203.945H198.314V202.091H195.856V213H198.427V206.608Z" fill="#05000B"/>
<path d="M107.275 159.547C116.26 159.547 122.686 154.605 122.666 147.77C122.686 142.789 119.521 139.234 113.643 138.492V138.18C118.115 137.379 121.201 134.215 121.182 129.723C121.201 123.414 115.674 118.453 107.393 118.453C99.1895 118.453 93.0176 123.258 92.9004 130.172H101.006C101.104 127.125 103.896 125.152 107.354 125.152C110.771 125.152 113.057 127.223 113.037 130.23C113.057 133.375 110.381 135.504 106.533 135.504H102.803V141.715H106.533C111.064 141.715 113.896 143.98 113.877 147.203C113.896 150.387 111.162 152.574 107.295 152.574C103.564 152.574 100.771 150.621 100.615 147.691H92.0996C92.2363 154.684 98.4863 159.547 107.275 159.547ZM144.429 159.879C154.487 159.879 160.562 152.223 160.581 139.039C160.601 125.953 154.448 118.453 144.429 118.453C134.39 118.453 128.296 125.934 128.276 139.039C128.237 152.184 134.351 159.859 144.429 159.879ZM144.429 152.867C139.839 152.867 136.87 148.258 136.89 139.039C136.909 129.957 139.858 125.387 144.429 125.387C148.979 125.387 151.948 129.957 151.948 139.039C151.968 148.258 148.999 152.867 144.429 152.867ZM178.564 152.906H185.557V142.574H195.889V135.582H185.557V125.25H178.564V135.582H168.232V142.574H178.564V152.906Z" fill="#1F37FF"/>
<defs>
<filter id="filter0_d_102_35" x="0" y="0" width="311" height="421" filterUnits="userSpaceOnUse" color-interpolation-filters="sRGB">
<feFlood flood-opacity="0" result="BackgroundImageFix"/>
<feColorMatrix in="SourceAlpha" type="matrix" values="0 0 0 0 0 0 0 0 0 0 0 0 0 0 0 0 0 0 127 0" result="hardAlpha"/>
<feOffset dx="10" dy="15"/>
<feGaussianBlur stdDeviation="12.5"/>
<feColorMatrix type="matrix" values="0 0 0 0 0 0 0 0 0 0 0 0 0 0 0 0 0 0 0.04 0"/>
<feBlend mode="normal" in2="BackgroundImageFix" result="effect1_dropShadow_102_35"/>
<feBlend mode="normal" in="SourceGraphic" in2="effect1_dropShadow_102_35" result="shape"/>
</filter>
</defs>
</svg>
