<svg width="312" height="421" viewBox="0 0 312 421" fill="none" xmlns="http://www.w3.org/2000/svg">
<g filter="url(#filter0_d_102_33)">
<path d="M15.0659 10H276.066V271L145.566 381L15.0659 271V10Z" fill="white"/>
</g>
<path opacity="0.7" d="M52.5025 213.5H55.1375V208.585H57.9216C61.2809 208.585 63.0849 206.568 63.0849 203.77C63.0849 200.993 61.3022 198.955 57.9571 198.955H52.5025V213.5ZM55.1375 206.419V201.156H57.5522C59.5267 201.156 60.4003 202.222 60.4003 203.77C60.4003 205.318 59.5267 206.419 57.5665 206.419H55.1375ZM65.26 213.5H67.831V207.087C67.831 205.702 68.875 204.722 70.2884 204.722C70.7216 204.722 71.2614 204.8 71.4816 204.871V202.506C71.2472 202.463 70.8424 202.435 70.5583 202.435C69.3083 202.435 68.2642 203.145 67.8665 204.409H67.7529V202.591H65.26V213.5ZM77.499 213.713C80.695 213.713 82.7263 211.462 82.7263 208.088C82.7263 204.707 80.695 202.449 77.499 202.449C74.303 202.449 72.2717 204.707 72.2717 208.088C72.2717 211.462 74.303 213.713 77.499 213.713ZM77.5132 211.653C75.7447 211.653 74.8782 210.077 74.8782 208.081C74.8782 206.085 75.7447 204.487 77.5132 204.487C79.2532 204.487 80.1197 206.085 80.1197 208.081C80.1197 210.077 79.2532 211.653 77.5132 211.653ZM84.9084 202.591V214.089C84.9084 215.006 84.5178 215.496 83.5306 215.496C83.4027 215.496 83.3033 215.489 83.1613 215.482V217.577C83.3459 217.591 83.5022 217.591 83.6868 217.591C86.0945 217.591 87.4794 216.483 87.4794 214.125V202.591H84.9084ZM86.1868 201.043C87.0036 201.043 87.6712 200.418 87.6712 199.651C87.6712 198.876 87.0036 198.251 86.1868 198.251C85.363 198.251 84.6954 198.876 84.6954 199.651C84.6954 200.418 85.363 201.043 86.1868 201.043ZM94.9528 213.713C97.4954 213.713 99.2426 212.47 99.6971 210.574L97.2966 210.304C96.9486 211.227 96.0963 211.71 94.9883 211.71C93.3264 211.71 92.2255 210.616 92.2042 208.749H99.8037V207.96C99.8037 204.132 97.5025 202.449 94.8179 202.449C91.6929 202.449 89.6545 204.743 89.6545 208.109C89.6545 211.533 91.6645 213.713 94.9528 213.713ZM92.2113 207.016C92.2895 205.624 93.3193 204.452 94.8534 204.452C96.3307 204.452 97.325 205.531 97.3392 207.016H92.2113ZM106.737 213.713C109.479 213.713 111.226 212.087 111.411 209.771H108.953C108.733 210.943 107.888 211.618 106.759 211.618C105.153 211.618 104.117 210.276 104.117 208.045C104.117 205.844 105.175 204.523 106.759 204.523C107.994 204.523 108.754 205.318 108.953 206.369H111.411C111.233 204.004 109.386 202.449 106.723 202.449C103.527 202.449 101.51 204.757 101.51 208.088C101.51 211.391 103.477 213.713 106.737 213.713ZM118.969 202.591H116.817V199.977H114.246V202.591H112.698V204.58H114.246V210.645C114.232 212.697 115.723 213.706 117.655 213.649C118.387 213.628 118.891 213.486 119.168 213.393L118.735 211.384C118.593 211.419 118.302 211.483 117.982 211.483C117.336 211.483 116.817 211.256 116.817 210.219V204.58H118.969V202.591ZM129.585 205.474C129.23 203.628 127.753 202.449 125.196 202.449C122.568 202.449 120.778 203.741 120.786 205.759C120.778 207.349 121.759 208.401 123.854 208.834L125.715 209.224C126.716 209.445 127.185 209.849 127.185 210.467C127.185 211.213 126.375 211.774 125.153 211.774C123.974 211.774 123.207 211.263 122.987 210.283L120.48 210.524C120.8 212.527 122.483 213.713 125.161 213.713C127.888 213.713 129.813 212.3 129.82 210.233C129.813 208.678 128.811 207.726 126.751 207.278L124.891 206.881C123.783 206.632 123.342 206.249 123.349 205.616C123.342 204.878 124.159 204.366 125.232 204.366C126.418 204.366 127.043 205.013 127.242 205.73L129.585 205.474ZM149.465 203.862C149.017 200.631 146.531 198.756 143.307 198.756C139.507 198.756 136.645 201.526 136.645 206.227C136.645 210.922 139.472 213.699 143.307 213.699C146.766 213.699 149.06 211.462 149.465 208.685L146.808 208.67C146.474 210.375 145.082 211.334 143.342 211.334C140.984 211.334 139.294 209.565 139.294 206.227C139.294 202.946 140.97 201.121 143.349 201.121C145.118 201.121 146.503 202.122 146.808 203.862H149.465ZM156.522 213.713C159.718 213.713 161.75 211.462 161.75 208.088C161.75 204.707 159.718 202.449 156.522 202.449C153.326 202.449 151.295 204.707 151.295 208.088C151.295 211.462 153.326 213.713 156.522 213.713ZM156.537 211.653C154.768 211.653 153.902 210.077 153.902 208.081C153.902 206.085 154.768 204.487 156.537 204.487C158.277 204.487 159.143 206.085 159.143 208.081C159.143 210.077 158.277 211.653 156.537 211.653ZM163.932 213.5H166.503V206.866C166.503 205.524 167.398 204.615 168.506 204.615C169.592 204.615 170.338 205.347 170.338 206.469V213.5H172.859V206.696C172.859 205.467 173.591 204.615 174.834 204.615C175.871 204.615 176.695 205.226 176.695 206.575V213.5H179.273V206.178C179.273 203.741 177.867 202.449 175.864 202.449C174.28 202.449 173.072 203.23 172.59 204.445H172.476C172.057 203.209 170.999 202.449 169.528 202.449C168.065 202.449 166.972 203.202 166.517 204.445H166.389V202.591H163.932V213.5ZM181.881 217.591H184.452V211.781H184.559C184.963 212.577 185.809 213.692 187.684 213.692C190.255 213.692 192.179 211.653 192.179 208.06C192.179 204.423 190.198 202.449 187.677 202.449C185.752 202.449 184.949 203.607 184.559 204.395H184.409V202.591H181.881V217.591ZM184.402 208.045C184.402 205.929 185.311 204.558 186.966 204.558C188.678 204.558 189.559 206.014 189.559 208.045C189.559 210.091 188.664 211.582 186.966 211.582C185.326 211.582 184.402 210.162 184.402 208.045ZM196.952 198.955H194.381V213.5H196.952V198.955ZM204.425 213.713C206.968 213.713 208.715 212.47 209.17 210.574L206.769 210.304C206.421 211.227 205.569 211.71 204.461 211.71C202.799 211.71 201.698 210.616 201.677 208.749H209.276V207.96C209.276 204.132 206.975 202.449 204.291 202.449C201.166 202.449 199.127 204.743 199.127 208.109C199.127 211.533 201.137 213.713 204.425 213.713ZM201.684 207.016C201.762 205.624 202.792 204.452 204.326 204.452C205.803 204.452 206.798 205.531 206.812 207.016H201.684ZM216.899 202.591H214.747V199.977H212.176V202.591H210.628V204.58H212.176V210.645C212.162 212.697 213.653 213.706 215.585 213.649C216.316 213.628 216.821 213.486 217.098 213.393L216.664 211.384C216.522 211.419 216.231 211.483 215.912 211.483C215.265 211.483 214.747 211.256 214.747 210.219V204.58H216.899V202.591ZM223.761 213.713C226.304 213.713 228.051 212.47 228.506 210.574L226.105 210.304C225.757 211.227 224.905 211.71 223.797 211.71C222.135 211.71 221.034 210.616 221.013 208.749H228.612V207.96C228.612 204.132 226.311 202.449 223.626 202.449C220.501 202.449 218.463 204.743 218.463 208.109C218.463 211.533 220.473 213.713 223.761 213.713ZM221.02 207.016C221.098 205.624 222.128 204.452 223.662 204.452C225.139 204.452 226.134 205.531 226.148 207.016H221.02ZM234.836 213.692C236.711 213.692 237.556 212.577 237.961 211.781H238.117V213.5H240.645V198.955H238.067V204.395H237.961C237.57 203.607 236.767 202.449 234.843 202.449C232.321 202.449 230.34 204.423 230.34 208.06C230.34 211.653 232.265 213.692 234.836 213.692ZM235.553 211.582C233.856 211.582 232.961 210.091 232.961 208.045C232.961 206.014 233.841 204.558 235.553 204.558C237.208 204.558 238.117 205.929 238.117 208.045C238.117 210.162 237.194 211.582 235.553 211.582Z" fill="#05000B"/>
<path d="M90.9175 160.047C99.8237 160.047 105.878 154.246 105.859 146.16C105.878 138.504 100.527 132.996 93.3198 132.996C89.8042 132.996 86.7769 134.461 85.3706 136.434H85.1362L86.1714 126.414H103.652V119.5H79.1987L77.3042 140.594L84.8237 141.941C86.0542 140.281 88.437 139.246 90.8003 139.246C94.8237 139.266 97.7144 142.176 97.7144 146.375C97.7144 150.535 94.8823 153.406 90.9175 153.406C87.5581 153.406 84.8433 151.297 84.6479 148.191H76.4448C76.6011 155.105 82.6362 160.047 90.9175 160.047ZM126.367 160.047C135.273 160.047 141.328 154.246 141.308 146.16C141.328 138.504 135.976 132.996 128.769 132.996C125.253 132.996 122.226 134.461 120.82 136.434H120.585L121.621 126.414H139.101V119.5H114.648L112.753 140.594L120.273 141.941C121.503 140.281 123.886 139.246 126.25 139.246C130.273 139.266 133.164 142.176 133.164 146.375C133.164 150.535 130.332 153.406 126.367 153.406C123.007 153.406 120.292 151.297 120.097 148.191H111.894C112.05 155.105 118.085 160.047 126.367 160.047ZM162.89 160.379C172.949 160.379 179.023 152.723 179.042 139.539C179.062 126.453 172.91 118.953 162.89 118.953C152.851 118.953 146.757 126.434 146.738 139.539C146.699 152.684 152.812 160.359 162.89 160.379ZM162.89 153.367C158.3 153.367 155.332 148.758 155.351 139.539C155.371 130.457 158.32 125.887 162.89 125.887C167.441 125.887 170.41 130.457 170.41 139.539C170.429 148.758 167.46 153.367 162.89 153.367ZM197.026 153.406H204.018V143.074H214.35V136.082H204.018V125.75H197.026V136.082H186.694V143.074H197.026V153.406Z" fill="#1F37FF"/>
<defs>
<filter id="filter0_d_102_33" x="0.065918" y="0" width="311" height="421" filterUnits="userSpaceOnUse" color-interpolation-filters="sRGB">
<feFlood flood-opacity="0" result="BackgroundImageFix"/>
<feColorMatrix in="SourceAlpha" type="matrix" values="0 0 0 0 0 0 0 0 0 0 0 0 0 0 0 0 0 0 127 0" result="hardAlpha"/>
<feOffset dx="10" dy="15"/>
<feGaussianBlur stdDeviation="12.5"/>
<feColorMatrix type="matrix" values="0 0 0 0 0 0 0 0 0 0 0 0 0 0 0 0 0 0 0.04 0"/>
<feBlend mode="normal" in2="BackgroundImageFix" result="effect1_dropShadow_102_33"/>
<feBlend mode="normal" in="SourceGraphic" in2="effect1_dropShadow_102_33" result="shape"/>
</filter>
</defs>
</svg>
