<svg width="312" height="421" viewBox="0 0 312 421" fill="none" xmlns="http://www.w3.org/2000/svg">
<g filter="url(#filter0_d_102_32)">
<path d="M15.0659 10H276.066V271L145.566 381L15.0659 271V10Z" fill="white"/>
</g>
<path opacity="0.7" d="M77.5006 213H80.1355V206.821H86.8756V213H89.5176V198.455H86.8756V204.612H80.1355V198.455H77.5006V213ZM95.409 213.22C97.1206 213.22 98.1433 212.418 98.6121 211.501H98.6973V213H101.169V205.699C101.169 202.815 98.818 201.949 96.7371 201.949C94.443 201.949 92.6817 202.972 92.1135 204.96L94.5141 205.301C94.7698 204.555 95.4942 203.916 96.7513 203.916C97.9445 203.916 98.5979 204.527 98.5979 205.599V205.642C98.5979 206.381 97.8237 206.416 95.899 206.622C93.7825 206.849 91.7584 207.482 91.7584 209.939C91.7584 212.084 93.328 213.22 95.409 213.22ZM96.0766 211.331C95.0041 211.331 94.2371 210.841 94.2371 209.896C94.2371 208.909 95.0965 208.497 96.247 208.334C96.9217 208.241 98.2712 208.071 98.605 207.801V209.087C98.605 210.301 97.6249 211.331 96.0766 211.331ZM103.754 217.091H106.325V211.281H106.432C106.837 212.077 107.682 213.192 109.557 213.192C112.128 213.192 114.052 211.153 114.052 207.56C114.052 203.923 112.071 201.949 109.55 201.949C107.625 201.949 106.822 203.107 106.432 203.895H106.283V202.091H103.754V217.091ZM106.275 207.545C106.275 205.429 107.185 204.058 108.839 204.058C110.551 204.058 111.432 205.514 111.432 207.545C111.432 209.591 110.537 211.082 108.839 211.082C107.199 211.082 106.275 209.662 106.275 207.545ZM116.254 217.091H118.825V211.281H118.932C119.337 212.077 120.182 213.192 122.057 213.192C124.628 213.192 126.552 211.153 126.552 207.56C126.552 203.923 124.571 201.949 122.05 201.949C120.125 201.949 119.322 203.107 118.932 203.895H118.783V202.091H116.254V217.091ZM118.775 207.545C118.775 205.429 119.685 204.058 121.339 204.058C123.051 204.058 123.932 205.514 123.932 207.545C123.932 209.591 123.037 211.082 121.339 211.082C119.699 211.082 118.775 209.662 118.775 207.545ZM129.981 217.091C131.984 217.091 133.142 216.061 133.759 214.321L138.142 202.105L135.393 202.091L132.872 210.33H132.758L130.244 202.091H127.517L131.473 213.227L131.252 213.817C130.777 215.06 130.024 215.145 128.902 214.818L128.305 216.821C128.653 216.963 129.278 217.091 129.981 217.091ZM162.412 203.362C161.964 200.131 159.479 198.256 156.254 198.256C152.454 198.256 149.592 201.026 149.592 205.727C149.592 210.422 152.419 213.199 156.254 213.199C159.713 213.199 162.007 210.962 162.412 208.185L159.756 208.17C159.422 209.875 158.03 210.834 156.29 210.834C153.932 210.834 152.241 209.065 152.241 205.727C152.241 202.446 153.917 200.621 156.297 200.621C158.065 200.621 159.45 201.622 159.756 203.362H162.412ZM167.282 198.455H164.711V213H167.282V198.455ZM169.926 213H172.497V202.091H169.926V213ZM171.219 200.543C172.035 200.543 172.703 199.918 172.703 199.151C172.703 198.376 172.035 197.751 171.219 197.751C170.395 197.751 169.727 198.376 169.727 199.151C169.727 199.918 170.395 200.543 171.219 200.543ZM179.97 213.213C182.513 213.213 184.26 211.97 184.715 210.074L182.314 209.804C181.966 210.727 181.114 211.21 180.006 211.21C178.344 211.21 177.243 210.116 177.222 208.249H184.821V207.46C184.821 203.632 182.52 201.949 179.835 201.949C176.71 201.949 174.672 204.243 174.672 207.609C174.672 211.033 176.682 213.213 179.97 213.213ZM177.229 206.516C177.307 205.124 178.337 203.952 179.871 203.952C181.348 203.952 182.343 205.031 182.357 206.516H177.229ZM189.567 206.608C189.567 205.031 190.519 204.122 191.876 204.122C193.204 204.122 193.999 204.996 193.999 206.452V213H196.57V206.054C196.577 203.44 195.086 201.949 192.834 201.949C191.201 201.949 190.079 202.73 189.582 203.945H189.454V202.091H186.996V213H189.567V206.608ZM204.631 202.091H202.479V199.477H199.908V202.091H198.36V204.08H199.908V210.145C199.894 212.197 201.386 213.206 203.317 213.149C204.049 213.128 204.553 212.986 204.83 212.893L204.397 210.884C204.255 210.919 203.964 210.983 203.644 210.983C202.998 210.983 202.479 210.756 202.479 209.719V204.08H204.631V202.091ZM215.247 204.974C214.892 203.128 213.415 201.949 210.858 201.949C208.23 201.949 206.441 203.241 206.448 205.259C206.441 206.849 207.421 207.901 209.516 208.334L211.377 208.724C212.378 208.945 212.847 209.349 212.847 209.967C212.847 210.713 212.037 211.274 210.816 211.274C209.637 211.274 208.87 210.763 208.649 209.783L206.142 210.024C206.462 212.027 208.145 213.213 210.823 213.213C213.55 213.213 215.475 211.8 215.482 209.733C215.475 208.178 214.473 207.226 212.414 206.778L210.553 206.381C209.445 206.132 209.004 205.749 209.012 205.116C209.004 204.378 209.821 203.866 210.894 203.866C212.08 203.866 212.705 204.513 212.904 205.23L215.247 204.974Z" fill="#05000B"/>
<path d="M108.068 159.547C116.975 159.547 123.029 153.746 123.01 145.66C123.029 138.004 117.678 132.496 110.471 132.496C106.955 132.496 103.928 133.961 102.521 135.934H102.287L103.322 125.914H120.803V119H96.3496L94.4551 140.094L101.975 141.441C103.205 139.781 105.588 138.746 107.951 138.746C111.975 138.766 114.865 141.676 114.865 145.875C114.865 150.035 112.033 152.906 108.068 152.906C104.709 152.906 101.994 150.797 101.799 147.691H93.5957C93.752 154.605 99.7871 159.547 108.068 159.547ZM144.592 159.879C154.65 159.879 160.725 152.223 160.744 139.039C160.764 125.953 154.611 118.453 144.592 118.453C134.553 118.453 128.459 125.934 128.439 139.039C128.4 152.184 134.514 159.859 144.592 159.879ZM144.592 152.867C140.002 152.867 137.033 148.258 137.053 139.039C137.072 129.957 140.021 125.387 144.592 125.387C149.143 125.387 152.111 129.957 152.111 139.039C152.131 148.258 149.162 152.867 144.592 152.867ZM178.728 152.906H185.72V142.574H196.052V135.582H185.72V125.25H178.728V135.582H168.396V142.574H178.728V152.906Z" fill="#1F37FF"/>
<defs>
<filter id="filter0_d_102_32" x="0.065918" y="0" width="311" height="421" filterUnits="userSpaceOnUse" color-interpolation-filters="sRGB">
<feFlood flood-opacity="0" result="BackgroundImageFix"/>
<feColorMatrix in="SourceAlpha" type="matrix" values="0 0 0 0 0 0 0 0 0 0 0 0 0 0 0 0 0 0 127 0" result="hardAlpha"/>
<feOffset dx="10" dy="15"/>
<feGaussianBlur stdDeviation="12.5"/>
<feColorMatrix type="matrix" values="0 0 0 0 0 0 0 0 0 0 0 0 0 0 0 0 0 0 0.04 0"/>
<feBlend mode="normal" in2="BackgroundImageFix" result="effect1_dropShadow_102_32"/>
<feBlend mode="normal" in="SourceGraphic" in2="effect1_dropShadow_102_32" result="shape"/>
</filter>
</defs>
</svg>
