<svg width="312" height="421" viewBox="0 0 312 421" fill="none" xmlns="http://www.w3.org/2000/svg">
<g filter="url(#filter0_d_102_34)">
<path d="M15.0659 10H276.066V271L145.566 381L15.0659 271V10Z" fill="white"/>
</g>
<path opacity="0.7" d="M54.744 213C59.1758 213 61.8037 210.259 61.8037 205.713C61.8037 201.182 59.1758 198.455 54.8434 198.455H49.815V213H54.744ZM52.45 210.72V200.734H54.6943C57.6488 200.734 59.19 202.382 59.19 205.713C59.19 209.058 57.6488 210.72 54.6162 210.72H52.45ZM69.0231 213.213C71.5657 213.213 73.3129 211.97 73.7674 210.074L71.3669 209.804C71.0189 210.727 70.1666 211.21 69.0586 211.21C67.3967 211.21 66.2959 210.116 66.2745 208.249H73.874V207.46C73.874 203.632 71.5728 201.949 68.8882 201.949C65.7632 201.949 63.7248 204.243 63.7248 207.609C63.7248 211.033 65.7348 213.213 69.0231 213.213ZM66.2816 206.516C66.3598 205.124 67.3896 203.952 68.9237 203.952C70.401 203.952 71.3953 205.031 71.4095 206.516H66.2816ZM80.0973 213.192C81.9723 213.192 82.8175 212.077 83.2223 211.281H83.3786V213H85.907V198.455H83.3289V203.895H83.2223C82.8317 203.107 82.0292 201.949 80.1044 201.949C77.5831 201.949 75.6016 203.923 75.6016 207.56C75.6016 211.153 77.5263 213.192 80.0973 213.192ZM80.8147 211.082C79.1172 211.082 78.2223 209.591 78.2223 207.545C78.2223 205.514 79.103 204.058 80.8147 204.058C82.4695 204.058 83.3786 205.429 83.3786 207.545C83.3786 209.662 82.4553 211.082 80.8147 211.082ZM88.6467 213H91.2177V202.091H88.6467V213ZM89.9393 200.543C90.7561 200.543 91.4237 199.918 91.4237 199.151C91.4237 198.376 90.7561 197.751 89.9393 197.751C89.1155 197.751 88.4478 198.376 88.4478 199.151C88.4478 199.918 89.1155 200.543 89.9393 200.543ZM98.6201 213.213C101.362 213.213 103.109 211.587 103.293 209.271H100.836C100.616 210.443 99.7706 211.118 98.6414 211.118C97.0363 211.118 95.9993 209.776 95.9993 207.545C95.9993 205.344 97.0576 204.023 98.6414 204.023C99.8772 204.023 100.637 204.818 100.836 205.869H103.293C103.116 203.504 101.269 201.949 98.6059 201.949C95.4098 201.949 93.3928 204.257 93.3928 207.588C93.3928 210.891 95.3601 213.213 98.6201 213.213ZM108.544 213.22C110.255 213.22 111.278 212.418 111.747 211.501H111.832V213H114.304V205.699C114.304 202.815 111.953 201.949 109.872 201.949C107.578 201.949 105.816 202.972 105.248 204.96L107.649 205.301C107.905 204.555 108.629 203.916 109.886 203.916C111.079 203.916 111.733 204.527 111.733 205.599V205.642C111.733 206.381 110.958 206.416 109.034 206.622C106.917 206.849 104.893 207.482 104.893 209.939C104.893 212.084 106.463 213.22 108.544 213.22ZM109.211 211.331C108.139 211.331 107.372 210.841 107.372 209.896C107.372 208.909 108.231 208.497 109.382 208.334C110.057 208.241 111.406 208.071 111.74 207.801V209.087C111.74 210.301 110.76 211.331 109.211 211.331ZM122.336 202.091H120.184V199.477H117.613V202.091H116.065V204.08H117.613V210.145C117.599 212.197 119.091 213.206 121.022 213.149C121.754 213.128 122.258 212.986 122.535 212.893L122.102 210.884C121.96 210.919 121.669 210.983 121.349 210.983C120.703 210.983 120.184 210.756 120.184 209.719V204.08H122.336V202.091ZM129.199 213.213C131.742 213.213 133.489 211.97 133.943 210.074L131.543 209.804C131.195 210.727 130.342 211.21 129.234 211.21C127.572 211.21 126.472 210.116 126.45 208.249H134.05V207.46C134.05 203.632 131.749 201.949 129.064 201.949C125.939 201.949 123.901 204.243 123.901 207.609C123.901 211.033 125.911 213.213 129.199 213.213ZM126.457 206.516C126.536 205.124 127.565 203.952 129.099 203.952C130.577 203.952 131.571 205.031 131.585 206.516H126.457ZM140.273 213.192C142.148 213.192 142.993 212.077 143.398 211.281H143.554V213H146.083V198.455H143.505V203.895H143.398C143.008 203.107 142.205 201.949 140.28 201.949C137.759 201.949 135.777 203.923 135.777 207.56C135.777 211.153 137.702 213.192 140.273 213.192ZM140.99 211.082C139.293 211.082 138.398 209.591 138.398 207.545C138.398 205.514 139.279 204.058 140.99 204.058C142.645 204.058 143.554 205.429 143.554 207.545C143.554 209.662 142.631 211.082 140.99 211.082ZM153.897 198.455V213H156.425V202.986H156.56L160.58 212.957H162.47L166.489 203.007H166.624V213H169.153V198.455H165.928L161.61 208.994H161.44L157.121 198.455H153.897ZM176.738 213.213C179.281 213.213 181.028 211.97 181.482 210.074L179.082 209.804C178.734 210.727 177.881 211.21 176.773 211.21C175.112 211.21 174.011 210.116 173.989 208.249H181.589V207.46C181.589 203.632 179.288 201.949 176.603 201.949C173.478 201.949 171.44 204.243 171.44 207.609C171.44 211.033 173.45 213.213 176.738 213.213ZM173.996 206.516C174.075 205.124 175.104 203.952 176.639 203.952C178.116 203.952 179.11 205.031 179.124 206.516H173.996ZM183.764 213H186.335V206.366C186.335 205.024 187.23 204.115 188.338 204.115C189.424 204.115 190.17 204.847 190.17 205.969V213H192.691V206.196C192.691 204.967 193.423 204.115 194.666 204.115C195.703 204.115 196.527 204.726 196.527 206.075V213H199.105V205.678C199.105 203.241 197.699 201.949 195.696 201.949C194.112 201.949 192.905 202.73 192.422 203.945H192.308C191.889 202.709 190.831 201.949 189.36 201.949C187.897 201.949 186.804 202.702 186.349 203.945H186.221V202.091H183.764V213ZM201.827 213H204.355V211.281H204.504C204.909 212.077 205.754 213.192 207.629 213.192C210.2 213.192 212.125 211.153 212.125 207.56C212.125 203.923 210.144 201.949 207.622 201.949C205.697 201.949 204.895 203.107 204.504 203.895H204.398V198.455H201.827V213ZM204.348 207.545C204.348 205.429 205.257 204.058 206.912 204.058C208.624 204.058 209.504 205.514 209.504 207.545C209.504 209.591 208.609 211.082 206.912 211.082C205.271 211.082 204.348 209.662 204.348 207.545ZM219.14 213.213C221.683 213.213 223.43 211.97 223.885 210.074L221.484 209.804C221.136 210.727 220.284 211.21 219.176 211.21C217.514 211.21 216.413 210.116 216.392 208.249H223.991V207.46C223.991 203.632 221.69 201.949 219.005 201.949C215.88 201.949 213.842 204.243 213.842 207.609C213.842 211.033 215.852 213.213 219.14 213.213ZM216.399 206.516C216.477 205.124 217.507 203.952 219.041 203.952C220.518 203.952 221.512 205.031 221.527 206.516H216.399ZM226.166 213H228.737V206.587C228.737 205.202 229.781 204.222 231.195 204.222C231.628 204.222 232.168 204.3 232.388 204.371V202.006C232.153 201.963 231.749 201.935 231.465 201.935C230.215 201.935 229.17 202.645 228.773 203.909H228.659V202.091H226.166V213ZM242.718 204.974C242.363 203.128 240.886 201.949 238.329 201.949C235.701 201.949 233.911 203.241 233.918 205.259C233.911 206.849 234.891 207.901 236.987 208.334L238.847 208.724C239.849 208.945 240.318 209.349 240.318 209.967C240.318 210.713 239.508 211.274 238.286 211.274C237.107 211.274 236.34 210.763 236.12 209.783L233.613 210.024C233.933 212.027 235.616 213.213 238.293 213.213C241.021 213.213 242.945 211.8 242.952 209.733C242.945 208.178 241.944 207.226 239.884 206.778L238.023 206.381C236.916 206.132 236.475 205.749 236.482 205.116C236.475 204.378 237.292 203.866 238.364 203.866C239.55 203.866 240.175 204.513 240.374 205.23L242.718 204.974Z" fill="#05000B"/>
<path d="M95.3286 159H123.844V152.086H107.047V151.812L112.887 146.09C121.11 138.59 123.317 134.84 123.317 130.289C123.317 123.355 117.653 118.453 109.079 118.453C100.68 118.453 94.9185 123.473 94.938 131.324H102.965C102.946 127.496 105.368 125.152 109.02 125.152C112.536 125.152 115.153 127.34 115.153 130.855C115.153 134.039 113.2 136.227 109.567 139.723L95.3286 152.906V159ZM144.582 159.547C153.488 159.547 159.542 153.746 159.523 145.66C159.542 138.004 154.191 132.496 146.984 132.496C143.468 132.496 140.441 133.961 139.035 135.934H138.8L139.835 125.914H157.316V119H132.863L130.968 140.094L138.488 141.441C139.718 139.781 142.101 138.746 144.464 138.746C148.488 138.766 151.378 141.676 151.378 145.875C151.378 150.035 148.546 152.906 144.582 152.906C141.222 152.906 138.507 150.797 138.312 147.691H130.109C130.265 154.605 136.3 159.547 144.582 159.547ZM181.105 159.879C191.164 159.879 197.238 152.223 197.257 139.039C197.277 125.953 191.125 118.453 181.105 118.453C171.066 118.453 164.972 125.934 164.953 139.039C164.914 152.184 171.027 159.859 181.105 159.879ZM181.105 152.867C176.515 152.867 173.546 148.258 173.566 139.039C173.585 129.957 176.535 125.387 181.105 125.387C185.656 125.387 188.625 129.957 188.625 139.039C188.644 148.258 185.675 152.867 181.105 152.867Z" fill="#1F37FF"/>
<defs>
<filter id="filter0_d_102_34" x="0.065918" y="0" width="311" height="421" filterUnits="userSpaceOnUse" color-interpolation-filters="sRGB">
<feFlood flood-opacity="0" result="BackgroundImageFix"/>
<feColorMatrix in="SourceAlpha" type="matrix" values="0 0 0 0 0 0 0 0 0 0 0 0 0 0 0 0 0 0 127 0" result="hardAlpha"/>
<feOffset dx="10" dy="15"/>
<feGaussianBlur stdDeviation="12.5"/>
<feColorMatrix type="matrix" values="0 0 0 0 0 0 0 0 0 0 0 0 0 0 0 0 0 0 0.04 0"/>
<feBlend mode="normal" in2="BackgroundImageFix" result="effect1_dropShadow_102_34"/>
<feBlend mode="normal" in="SourceGraphic" in2="effect1_dropShadow_102_34" result="shape"/>
</filter>
</defs>
</svg>
